<svg width="64" height="64" viewBox="0 0 64 64" fill="none" xmlns="http://www.w3.org/2000/svg">
<circle cx="32" cy="32" r="32" fill="#05AC6A" fill-opacity="0.3"/>
<path d="M46.2828 18.0001C49.8194 21.6076 52 26.5492 52 32C52 37.5156 49.7672 42.5098 46.1564 46.128M18 46.283C14.2973 42.653 12 37.5948 12 32C12 26.47 14.2444 21.4642 17.8721 17.8438" stroke="#1C274C" stroke-width="2" stroke-linecap="round" stroke-linejoin="round"/>
<path d="M40.5698 24.0879C42.6916 26.1175 44 28.8976 44 31.9644C44 35.0676 42.6604 37.8772 40.4938 39.9128M23.6 40C21.3784 37.9578 20 35.112 20 31.9644C20 28.8532 21.3467 26.0369 23.5232 24" stroke="#1C274C" stroke-width="2" stroke-linecap="round" stroke-linejoin="round"/>
<path d="M35.3126 28.9022C37.1042 30.2176 38 30.8752 38 32C38 33.1248 37.1042 33.7824 35.3126 35.0978C34.8182 35.4608 34.3276 35.8028 33.8768 36.0876C33.4814 36.3376 33.0336 36.596 32.5698 36.8498C30.7826 37.828 29.8888 38.3172 29.0874 37.7756C28.2858 37.234 28.213 36.1004 28.0674 33.8332C28.0262 33.192 28 32.5634 28 32C28 31.4366 28.0262 30.808 28.0674 30.1668C28.213 27.8995 28.2858 26.7659 29.0874 26.2244C29.8888 25.6829 30.7826 26.172 32.5698 27.1502C33.0336 27.404 33.4814 27.6625 33.8768 27.9124C34.3276 28.1972 34.8182 28.5392 35.3126 28.9022Z" fill="#1C274C" stroke="#1C274C" stroke-width="2"/>
</svg>
